PathFileType	4	(X/Y/Z)	C:\Users\gl24\Desktop\Patient 1 Synergy Driven Model\NMS_Pipeline_Results_NewModel\Right\TRC Data (Extra Frame)\Patient3_NormalGait_1pt2_02_Right_25.trc.trc
DataRate	CameraRate	NumFrames	NumMarkers	Units	OrigDataRate	OrigDataStartFrame	OrigNumFrames
87.500000000000	87.500000000000	4	33	mm	87.500000000000	107	       142
Frame#	Time	L.Toe			R.Toe			L.Heel			Neck			R.Shoulder			L.Shank.Lateral			R.Shank.Lateral			R.Midfoot.Lateral			L.Shoulder			R.Midfoot.Superior			R.Elbow			L.Wrist			L.Elbow			R.Heel			R.Wrist			L.Midfoot.Superior			R.Thigh.Superior			Sternum			R.Shank.Superior			R.Shank.Inferior			L.Thigh.Superior			R.Patella			L.Midfoot.Lateral			L.Shank.Inferior			L.Patella			R.Thigh.Inferior			R.Thigh.Lateral			L.Thigh.Inferior			L.Thigh.Lateral			R.Asis			L.Asis			L.Shank.Superior			Sacral			
		X1	Y1	Z1	X2	Y2	Z2	X3	Y3	Z3	X4	Y4	Z4	X5	Y5	Z5	X6	Y6	Z6	X7	Y7	Z7	X8	Y8	Z8	X9	Y9	Z9	X10	Y10	Z10	X11	Y11	Z11	X12	Y12	Z12	X13	Y13	Z13	X14	Y14	Z14	X15	Y15	Z15	X16	Y16	Z16	X17	Y17	Z17	X18	Y18	Z18	X19	Y19	Z19	X20	Y20	Z20	X21	Y21	Z21	X22	Y22	Z22	X23	Y23	Z23	X24	Y24	Z24	X25	Y25	Z25	X26	Y26	Z26	X27	Y27	Z27	X28	Y28	Z28	X29	Y29	Z29	X30	Y30	Z30	X31	Y31	Z31	X32	Y32	Z32	X33	Y33	Z33	

107	29.531428571429	639.856319251529	38.584538501173	394.394884630481	764.735075396978	36.717646574153	551.966415815852	350.741333487756	52.577200654696	439.657009705683	504.738025932150	1462.131095293740	459.014414892527	557.375988799065	1420.192860616600	626.498124758420	467.811713993647	337.465730724985	321.262364865313	670.489022738393	406.361821172283	630.919061762240	563.783895604899	104.407228292658	586.105254037070	589.168960295587	1438.553436373655	310.533735198258	669.668688607010	125.046661702137	544.102109437700	492.796415984385	1074.792538089749	711.261668516424	761.817306388347	909.256267161618	185.945741992471	590.182633649529	1104.479131519750	185.561068214525	489.524520710067	144.010568973777	522.688360725921	545.209752099436	826.424629184290	734.383527991722	525.238269901912	91.423806241072	406.038940731446	742.863624997721	766.476931818732	593.634775058507	664.410195664924	1374.515143694472	472.083501457785	764.574181773763	418.562178136820	581.347986166634	678.415390158701	264.733886252492	560.473047348622	678.588020226668	732.445989280948	337.689688286051	827.781443501500	538.616536437778	575.536593191283	427.303106934538	37.467419219176	374.700576643441	517.877283025714	232.648971024961	390.134248186781	625.407339694202	483.272828007443	378.081452687425	789.871766154902	665.916685135381	580.227378981442	687.172245881538	682.753551439528	646.788164898023	655.487866452894	603.851207042412	356.008101833177	575.838565465446	659.148634606657	300.024636492693	628.616286698966	976.114810544885	583.416339176246	644.179791442799	964.510299565187	325.655977794659	565.906077710093	380.364929532683	364.079764274450	455.809251869408	993.814731826725	452.054327876743	
108	29.542857142857	626.117906159113	38.268711964549	394.332103443519	797.886650791880	38.775867241124	553.716424915100	337.348464312078	54.577764231702	439.542761420460	504.550279343049	1462.078078359663	459.224208415631	556.791422986987	1419.933866650368	626.830162789063	456.614698022775	338.657501799797	321.099157853627	678.512721581360	401.614502532958	632.252684276763	592.948091780510	92.855081908355	588.531103906147	589.165246752369	1438.472851899001	310.902925392266	697.070274459477	120.436501109600	545.994432367708	486.776112409825	1075.589630503900	710.462092280674	769.545797587983	914.257494849587	186.615899832601	592.472069882006	1104.710485904629	184.792568057624	515.947775519373	127.171610351375	525.294942096325	534.459722617114	826.346040033814	733.880988202584	512.155662691940	91.661488124734	405.730487772369	741.410354197923	767.472823038880	592.131378737301	663.949345546408	1374.029407490897	472.509850281970	771.050837786033	420.173258047447	581.894611576425	696.017878903007	260.625027791218	561.911268356551	673.190485591079	730.941455432247	337.913436457133	827.336026121169	540.915359972729	574.778262520396	413.800426226080	38.579437844196	374.614681195084	505.896213536783	233.232760731353	389.788641633897	615.596813226748	482.303681929733	377.734782354049	788.724266470642	667.058845541235	578.556495448599	687.823219550946	683.975670378572	647.807944543976	648.351667772606	602.531646930715	355.883558870355	569.366434127510	659.099375483553	300.125549431560	627.114000662779	976.029667927926	583.588124317637	642.222628468312	963.777453749148	325.837103296942	555.142708755727	380.641434286299	363.679632006492	454.385311066335	993.864501545063	452.429317301968	
109	29.554285714286	612.367832434821	38.007520565344	394.265038396315	830.848650475113	42.350253050421	555.779616510563	323.982886169877	56.584639077331	439.433592015226	504.423114635956	1461.807571685913	459.511567708084	556.331201484976	1419.497815078894	627.219979676374	445.533078042655	339.858025541762	320.958267401974	686.023330603161	396.583682106725	633.623665492880	622.914043372486	82.464149113253	591.115473687967	589.167175669911	1438.148835711345	311.321386225370	724.740204932822	116.837046149308	548.079359292043	481.305336956300	1076.235508061054	709.766829640298	776.877666207988	919.067710508465	187.373553942379	594.631365808289	1104.709643121210	184.136609440111	543.627838730375	111.167179126725	527.993663569213	524.469603675717	826.243166888273	733.517609578458	499.092078357008	91.893814125406	405.403453655317	739.505257101159	767.509574795867	590.791388303780	663.547320840059	1373.326718899715	472.976229429653	776.500506304636	421.544607524746	582.531415804205	713.511026598956	256.945777503671	563.492254640665	667.836117791509	729.333879737462	338.422798033015	825.635392091159	542.188551788111	573.912836879423	400.310500164950	39.700162059572	374.528372626478	493.979707725478	233.797789378005	389.454462271151	605.906218733676	481.182287303983	377.534219943206	786.707974418164	667.036071341004	577.045010185634	687.500264081858	684.401767227750	648.612627261799	641.278349134399	601.150715192695	355.990704653128	563.086752967292	658.938829471719	300.248713860139	625.689397187869	975.728732354735	583.850689104615	640.347048958079	962.844330853014	326.111165798727	544.481541709427	380.863723335852	363.337565564430	452.995816760278	993.712631550120	452.836685831241	
110	29.565714285714	598.610583423926	37.806510708077	394.188381102963	863.361713651568	47.749774864985	558.052354211852	310.651090633350	58.609076714392	439.326223785084	504.362587625701	1461.312088604334	459.878804460438	556.005300277421	1418.869928643149	627.669027952143	434.557690319222	341.082195266798	320.835761668469	692.984996804008	391.380390327448	635.011739152964	653.475932615075	73.536653310715	593.798125757849	589.188768808776	1437.582458467776	311.792123870647	752.450511276588	114.553096927793	550.288432026959	476.398100342004	1076.696461010039	709.201394581675	783.795605466380	923.647605133311	188.211224480469	596.660493982115	1104.473907329506	183.602465703384	572.366519001752	96.318507818675	530.743602692393	515.292478017743	826.073170961553	733.301054979540	486.049436880788	92.121131879929	405.055933484162	737.173170133406	766.530145684565	589.678319508528	663.214345922128	1372.404359589355	473.482955148845	780.897691450665	422.713649468998	583.263840202113	730.744440265851	253.884855738716	565.187602957624	662.557896809366	727.631176916642	339.160706573324	822.739878605165	542.462707027107	572.936620477083	386.835419051865	40.833116190754	374.442212639535	482.130101544936	234.346170947292	389.123179794336	596.327017736531	479.922375834133	377.472331913319	783.833958805486	665.795904807034	575.766223305052	686.117020810083	683.968591177328	649.195263232940	634.243480664610	599.730125926568	356.335927208747	557.004379805469	658.677658872371	300.368945146426	624.388870240202	975.207158983598	584.197528022728	638.564488967952	961.720932650206	326.461225834807	533.917160236779	381.031133574919	363.046322884881	451.669114939978	993.335293350022	453.312376616343	
